# xmcd
#
# Track frame offsets:
# 150
# 19756
# 35082
# 58288
# 76255
# 93235
#
# Disc length: 1322 seconds
#
#
# Revision: 0
# Processed by: cddbd v1.5.2PL0 Copyright (c) Steve Scherf et al.
# Submitted via: Nero 7, 11, 10, 0 
#
DISCID=45052806
DTITLE=Lenny Smith and Friends - Featuring Chicago Bob
DYEAR=1997
DGENRE=Blues
TTITLE0=Strut Your Stuff
TTITLE1=Movin' Too Fast
TTITLE2=Louisiana Mojo Man
TTITLE3=Last Chance
TTITLE4=Waitin' On My Woman
TTITLE5=Mojo Man (Reprise)
EXTD=
EXTT0=Strut Your Stuff
EXTT1=Movin' Too Fast
EXTT2=Louisiana Mojo Man
EXTT3=Last Chance
EXTT4=Waitin' On My Woman
EXTT5=Mojo Man (Reprise)
PLAYORDER=
